<svg id='Sneakers_24' width='24' height='24' viewBox='0 0 24 24' xmlns='http://www.w3.org/2000/svg' xmlns:xlink='http://www.w3.org/1999/xlink'><rect width='24' height='24' stroke='none' fill='#000000' opacity='0'/>


<g transform="matrix(0.16 0 0 0.16 12 12)" >
<g style="" >
<g transform="matrix(1 0 0 1 19.2 7.71)" id="Layer_1" >
<path style="stroke: none; stroke-width: 1; stroke-dasharray: none; stroke-linecap: butt; stroke-dashoffset: 0; stroke-linejoin: miter; stroke-miterlimit: 4; fill: rgb(255,255,255); fill-rule: nonzero; opacity: 1;" transform=" translate(-83.2, -71.71)" d="M 73.2 71.1 L 80.8 64.1 C 83.2 61.89999999999999 86.8 61.99999999999999 89.1 64.3 L 90.5 65.7 L 90.5 65.7 C 94.1 69.3 94.1 75.10000000000001 90.5 78.7 L 88.3 80.9 L 73.2 71.1 z" stroke-linecap="round" />
</g>
<g transform="matrix(1 0 0 1 -0.05 33.26)" id="Layer_1" >
<path style="stroke: none; stroke-width: 1; stroke-dasharray: none; stroke-linecap: butt; stroke-dashoffset: 0; stroke-linejoin: miter; stroke-miterlimit: 4; fill: rgb(252,202,61); fill-rule: nonzero; opacity: 1;" transform=" translate(-63.95, -97.26)" d="M 118.6 106.7 L 118.6 106.7 C 120.69999999999999 103.2 121.5 99.10000000000001 121 95.10000000000001 L 118.9 80.2 C 118.80000000000001 79.2 118.4 78.2 117.9 77.3 L 117.9 77.3 C 115.9 73.7 110.7 73.8 108.80000000000001 77.39999999999999 L 108.80000000000001 77.39999999999999 C 105.10000000000001 84.49999999999999 95.60000000000001 86.1 89.70000000000002 80.49999999999999 L 81.50000000000001 72.69999999999999 C 79.10000000000001 70.39999999999999 75.50000000000001 69.99999999999999 72.70000000000002 71.49999999999999 L 54.8 85.8 L 35.4 91.89999999999999 C 31.799999999999997 93.8 27.9 95.1 23.9 95.6 L 13.499999999999998 96.89999999999999 C 8.099999999999998 97.6 3.9999999999999982 102.19999999999999 3.9999999999999982 107.6 L 3.9999999999999982 107.6 C 3.9999999999999982 110.19999999999999 4.699999999999998 112.8 5.999999999999998 114.89999999999999 C 9.099999999999998 119.8 15.799999999999999 123.89999999999999 45 123.89999999999999 C 101.2 123.89999999999999 115.2 123.89999999999999 123.9 117.39999999999999 L 118.6 106.7 z" stroke-linecap="round" />
</g>
<g transform="matrix(1 0 0 1 31.45 28.46)" id="Layer_1" >
<path style="stroke: none; stroke-width: 1; stroke-dasharray: none; stroke-linecap: butt; stroke-dashoffset: 0; stroke-linejoin: miter; stroke-miterlimit: 4; fill: rgb(255,97,68); fill-rule: nonzero; opacity: 1;" transform=" translate(-95.45, -92.46)" d="M 118.6 106.7 C 120.69999999999999 103.2 121.5 99.10000000000001 121 95.10000000000001 L 118.9 80.2 C 118.80000000000001 79.2 118.4 78.2 117.9 77.3 L 117.9 77.3 C 115.9 73.7 110.7 73.8 108.80000000000001 77.39999999999999 L 108.80000000000001 77.39999999999999 C 105.50000000000001 83.8 97.50000000000001 85.69999999999999 91.70000000000002 82.1 C 89.90000000000002 83.19999999999999 88.80000000000001 83.8 88.00000000000001 83.1 C 86.70000000000002 81.89999999999999 84.30000000000001 81.69999999999999 83.00000000000001 82.89999999999999 C 81.60000000000001 84.19999999999999 81.60000000000001 86.39999999999999 82.90000000000002 87.6 C 84.90000000000002 89.5 87.20000000000002 91 89.70000000000002 92 C 92.50000000000001 93.1 93.40000000000002 96.6 91.60000000000002 99.1 C 90.80000000000003 100.1 89.60000000000002 100.8 88.40000000000002 100.89999999999999 C 82.50000000000001 101.6 77.30000000000003 102.69999999999999 72.40000000000002 103.8 C 70.70000000000002 104.2 69.50000000000001 105.8 69.80000000000003 107.6 C 70.10000000000002 109.39999999999999 71.90000000000002 110.6 73.70000000000003 110.19999999999999 C 80.50000000000003 108.6 87.80000000000003 107.1 96.80000000000004 106.79999999999998 C 96.80000000000004 106.79999999999998 96.90000000000003 106.79999999999998 96.90000000000003 106.79999999999998 C 96.90000000000003 106.79999999999998 96.90000000000003 106.79999999999998 97.00000000000003 106.79999999999998 C 97.10000000000002 106.79999999999998 97.60000000000002 106.79999999999998 101.70000000000003 106.79999999999998 L 113.20000000000003 106.79999999999998 C 113.20000000000003 106.79999999999998 113.20000000000003 106.79999999999998 113.20000000000003 106.79999999999998 C 114.70000000000003 106.79999999999998 118.20000000000003 108.29999999999998 118.90000000000003 107.39999999999998 L 118.6 106.7 z" stroke-linecap="round" />
</g>
<g transform="matrix(1 0 0 1 -9.55 18.94)" id="Layer_1" >
<path style="stroke: none; stroke-width: 1; stroke-dasharray: none; stroke-linecap: butt; stroke-dashoffset: 0; stroke-linejoin: miter; stroke-miterlimit: 4; fill: rgb(255,255,255); fill-rule: nonzero; opacity: 1;" transform=" translate(-54.45, -82.94)" d="M 73.2 71.3 C 73 71.39999999999999 72.9 71.39999999999999 72.7 71.5 L 35.7 91.7 L 36.6 92.10000000000001 C 52.7 99.7 71.5 89 73.2 71.3 z" stroke-linecap="round" />
</g>
<g transform="matrix(1 0 0 1 -45.4 37.17)" id="Layer_1" >
<path style="stroke: none; stroke-width: 1; stroke-dasharray: none; stroke-linecap: butt; stroke-dashoffset: 0; stroke-linejoin: miter; stroke-miterlimit: 4; fill: rgb(255,97,68); fill-rule: nonzero; opacity: 1;" transform=" translate(-18.6, -101.17)" d="M 33.2 98.4 C 33.2 95.80000000000001 30.800000000000004 94 28.300000000000004 94.7 C 26.900000000000006 95.10000000000001 25.400000000000006 95.4 23.900000000000006 95.60000000000001 L 13.500000000000005 96.9 C 8.000000000000005 97.60000000000001 3.9000000000000057 102.30000000000001 4.000000000000005 107.80000000000001 C 4.000000000000005 107.80000000000001 4.000000000000005 107.80000000000001 4.000000000000005 107.80000000000001 L 23.800000000000004 107.80000000000001 C 29.1 107.8 33.2 103.6 33.2 98.4 L 33.2 98.4 z" stroke-linecap="round" />
</g>
<g transform="matrix(1 0 0 1 0.8 51.35)" id="Layer_1" >
<path style="stroke: none; stroke-width: 1; stroke-dasharray: none; stroke-linecap: butt; stroke-dashoffset: 0; stroke-linejoin: miter; stroke-miterlimit: 4; fill: rgb(255,255,255); fill-rule: nonzero; opacity: 1;" transform=" translate(-64.8, -115.35)" d="M 118.6 106.7 C 118.6 106.7 97.3 106.7 97 106.7 C 74.3 107.5 63.8 115.3 37.6 115.3 C 16 115.3 8.200000000000003 115.3 5.5 113.8 C 8.4 119.2 13.7 124 45.2 124 C 101.4 124 115.4 124 124.10000000000001 117.5 L 118.6 106.7 z" stroke-linecap="round" />
</g>
<g transform="matrix(1 0 0 1 -59.23 46.8)" id="Layer_1" >
<path style="stroke: none; stroke-width: 1; stroke-dasharray: none; stroke-linecap: butt; stroke-dashoffset: 0; stroke-linejoin: miter; stroke-miterlimit: 4; fill: rgb(31,212,175); fill-rule: nonzero; opacity: 0.5;" transform=" translate(-4.77, -110.8)" d="M 4.1 107.8 C 4.1 110.89999999999999 3.5999999999999996 112.7 5.5 113.8 C 5 112.9 4.5 112 4.1 111 L 4.1 107.8 z" stroke-linecap="round" />
</g>
<g transform="matrix(1 0 0 1 -0.1 29.24)" id="Layer_1" >
<path style="stroke: none; stroke-width: 1; stroke-dasharray: none; stroke-linecap: butt; stroke-dashoffset: 0; stroke-linejoin: miter; stroke-miterlimit: 4; fill: rgb(68,75,84); fill-rule: nonzero; opacity: 1;" transform=" translate(-63.9, -93.24)" d="M 45.1 127 C 16 127 7.600000000000001 123 3.5 116.5 C 1.9 113.9 1 110.9 1 107.6 C 1 100.6 6.2 94.69999999999999 13.1 93.89999999999999 L 24.4 92.49999999999999 C 27.799999999999997 92.09999999999998 30.9 90.79999999999998 33.9 89.19999999999999 C 35.3 88.49999999999999 37 88.99999999999999 37.9 90.29999999999998 C 38.8 91.79999999999998 38.1 93.79999999999998 36.5 94.59999999999998 C 32.7 96.69999999999997 28.5 97.99999999999999 24.2 98.49999999999999 L 13.799999999999999 99.79999999999998 C 10 100.29999999999998 7.099999999999999 103.39999999999998 6.999999999999999 107.19999999999999 C 6.8999999999999995 109.49999999999999 7.499999999999999 111.6 8.6 113.29999999999998 C 11.1 117.29999999999998 17.299999999999997 120.99999999999999 45.1 120.99999999999999 C 93.4 120.99999999999999 110.4 120.99999999999999 119.19999999999999 116.89999999999999 C 119.69999999999999 116.69999999999999 119.89999999999999 115.99999999999999 119.69999999999999 115.49999999999999 L 115.89999999999999 107.99999999999999 C 115.39999999999999 107.09999999999998 115.49999999999999 105.99999999999999 115.99999999999999 105.09999999999998 C 117.69999999999999 102.19999999999997 118.39999999999999 98.79999999999998 117.89999999999999 95.49999999999999 L 115.8 80.59999999999998 C 115.7 79.89999999999998 115.5 79.29999999999998 115.2 78.69999999999997 C 114.60000000000001 77.69999999999997 113.7 77.59999999999998 113.3 77.59999999999998 C 112.89999999999999 77.59999999999998 112 77.69999999999997 111.39999999999999 78.79999999999998 C 109.19999999999999 82.99999999999999 105.19999999999999 85.89999999999998 100.49999999999999 86.69999999999999 C 95.79999999999998 87.49999999999999 91.09999999999998 85.99999999999999 87.59999999999998 82.69999999999999 L 79.39999999999998 74.89999999999999 C 77.89999999999998 73.49999999999999 75.79999999999998 73.3 73.99999999999997 74.19999999999999 C 72.69999999999997 74.79999999999998 71.19999999999997 74.49999999999999 70.29999999999997 73.39999999999999 C 69.29999999999997 72.1 69.59999999999997 70.3 70.79999999999997 69.19999999999999 L 71.19999999999997 68.79999999999998 L 78.89999999999998 61.79999999999998 C 82.49999999999997 58.59999999999998 87.89999999999998 58.69999999999998 91.29999999999998 62.09999999999998 L 92.49999999999999 63.29999999999998 C 93.59999999999998 64.39999999999998 93.79999999999998 66.29999999999998 92.69999999999999 67.49999999999999 C 91.49999999999999 68.79999999999998 89.6 68.79999999999998 88.29999999999998 67.59999999999998 L 87 66.4 C 85.9 65.30000000000001 84 65.2 82.8 66.30000000000001 L 80.39999999999999 68.50000000000001 C 81.49999999999999 69.00000000000001 82.6 69.70000000000002 83.49999999999999 70.60000000000001 L 91.39999999999999 78.2 C 93.49999999999999 80.2 96.39999999999999 81.3 99.3 80.8 C 102.2 80.39999999999999 104.6 78.6 106 76 C 107.4 73.3 110.1 71.7 113.1 71.6 C 113.1 71.6 113.19999999999999 71.6 113.19999999999999 71.6 C 116.19999999999999 71.6 118.89999999999999 73.19999999999999 120.29999999999998 75.8 C 120.99999999999999 77 121.39999999999998 78.39999999999999 121.59999999999998 79.8 L 123.69999999999997 94.7 C 124.29999999999997 98.8 123.59999999999998 103.10000000000001 121.79999999999997 106.8 L 126.49999999999997 116.2 C 127.09999999999997 117.5 126.79999999999997 119.10000000000001 125.59999999999997 119.9 C 116.3 127 102.7 127 45.1 127 z" stroke-linecap="round" />
</g>
<g transform="matrix(1 0 0 1 -10.84 16.85)" id="Layer_1" >
<path style="stroke: none; stroke-width: 1; stroke-dasharray: none; stroke-linecap: butt; stroke-dashoffset: 0; stroke-linejoin: miter; stroke-miterlimit: 4; fill: rgb(68,75,84); fill-rule: nonzero; opacity: 1;" transform=" translate(-53.16, -80.85)" d="M 45.2 91.4 C 44.400000000000006 91.4 43.7 91.10000000000001 43.1 90.5 C 41 88.4 40.300000000000004 85.2 41.5 82.4 C 42.7 79.60000000000001 45.4 77.80000000000001 48.4 77.80000000000001 C 50.1 77.80000000000001 51.4 79.10000000000001 51.4 80.80000000000001 C 51.4 82.50000000000001 50.1 83.80000000000001 48.4 83.80000000000001 C 47.5 83.80000000000001 47.199999999999996 84.4 47 84.70000000000002 C 46.800000000000004 85.00000000000003 46.7 85.70000000000002 47.3 86.30000000000001 C 48.5 87.50000000000001 48.5 89.4 47.3 90.50000000000001 C 46.7 91.1 46 91.4 45.2 91.4 z M 59.2 83.9 C 58.400000000000006 83.9 57.7 83.60000000000001 57.1 83 C 55 80.9 54.300000000000004 77.7 55.5 74.9 C 56.7 72.10000000000001 59.4 70.30000000000001 62.4 70.30000000000001 C 64.1 70.30000000000001 65.4 71.60000000000001 65.4 73.30000000000001 C 65.4 75.00000000000001 64.10000000000001 76.30000000000001 62.400000000000006 76.30000000000001 C 61.50000000000001 76.30000000000001 61.2 76.9 61.00000000000001 77.20000000000002 C 60.900000000000006 77.50000000000001 60.70000000000001 78.20000000000002 61.300000000000004 78.80000000000001 C 62.50000000000001 80.00000000000001 62.50000000000001 81.9 61.300000000000004 83.00000000000001 C 60.8 83.6 60 83.9 59.2 83.9 z" stroke-linecap="round" />
</g>
</g>
</g>
</svg>